<?xml version="1.0" encoding="iso-8859-1"?>
<!-- Uploaded to: SVG Repo, www.svgrepo.com, Generator: SVG Repo Mixer Tools -->
<svg version="1.1" id="Layer_1" xmlns="http://www.w3.org/2000/svg" xmlns:xlink="http://www.w3.org/1999/xlink" 
	 viewBox="0 0 512 512" xml:space="preserve">
<path style="fill:#FFFFFF;" d="M108.126,98.088h261.682V61.994H72.032l0,0C72.032,81.928,88.192,98.088,108.126,98.088z"/>
<polygon style="fill:#EC7905;" points="243.48,7.853 135.196,7.853 153.244,61.994 243.48,61.994 "/>
<polygon style="fill:#EC7905;" points="261.526,504.147 81.055,504.147 81.055,287.583 171.291,98.088 261.526,287.583 "/>
<rect x="81.051" y="459.031" style="fill:#EC7905;" width="180.467" height="45.117"/>
<g>
	<polygon style="fill:#6A86AC;" points="360.785,61.994 180.314,61.994 198.362,7.853 378.832,7.853 	"/>
	<polyline style="fill:#6A86AC;" points="171.291,98.088 349.733,98.088 439.968,287.583 439.968,504.147 261.526,504.147 
		261.526,287.583 171.291,98.088 	"/>
</g>
<rect x="261.528" y="459.031" style="fill:#889EBD;" width="178.446" height="45.117"/>
<g>
	<rect x="126.168" y="451.178" style="fill:#1D1D1B;" width="18.047" height="15.706"/>
	<rect x="162.269" y="451.178" style="fill:#1D1D1B;" width="18.047" height="15.706"/>
	<rect x="198.361" y="451.178" style="fill:#1D1D1B;" width="18.047" height="15.706"/>
	<rect x="306.645" y="451.178" style="fill:#1D1D1B;" width="18.047" height="15.706"/>
	<rect x="342.736" y="451.178" style="fill:#1D1D1B;" width="18.047" height="15.706"/>
	<rect x="378.828" y="451.178" style="fill:#1D1D1B;" width="18.047" height="15.706"/>
	<path style="fill:#1D1D1B;" d="M362.169,105.941h15.492v-51.8h-5.981L389.727,0H192.702l-18.047,54.141h-15.751l-12.813-38.436
		h34.222V0h-56.013l18.047,54.141H64.179v7.853c0,24.233,19.715,43.947,43.947,43.947h50.728L73.202,285.808V512h186.295h9.882
		h178.442V285.808L362.169,105.941z M204.021,15.706h163.915l-12.811,38.436H191.209L204.021,15.706z M108.126,90.236
		c-12.848,0-23.721-8.624-27.131-20.389h280.96v20.389H108.126z M88.908,496.294v-29.412h19.217v-15.706H88.908v-161.82
		l74.53-156.513v127.668h15.706V132.844l74.53,156.513v161.82h-19.217v15.706h19.217v29.412H88.908z M269.379,496.294v-29.412
		h19.217v-15.706h-19.217V285.808L183.727,105.94h161.048l87.34,183.416v161.82h-17.189v15.706h17.189v29.412H269.379z"/>
	<polygon style="fill:#1D1D1B;" points="389.026,52.971 389.026,107.112 404.731,107.112 404.731,87.893 423.95,87.893 
		423.95,72.188 404.731,72.188 404.731,52.971 	"/>
</g>
</svg>